<svg version="1.2" xmlns="http://www.w3.org/2000/svg" viewBox="0 0 908 705" width="908" height="705"><style>.a{fill:#92e3a9}.b{fill:#263238}.c{fill:#fff}.d{fill:#92e3a9;stroke:#263238;stroke-miterlimit:10;stroke-width:2}.e{fill:#263238;stroke:#263238;stroke-miterlimit:10;stroke-width:2}.f{fill:#fff;stroke:#263238;stroke-miterlimit:10;stroke-width:2}.g{fill:#575757}.h{fill:#828282}.i{fill:#b0b0b0}.j{fill:#dedede}.k{fill:#b8b8b8}.l{fill:#787878}.m{fill:#999}.n{fill:none;stroke:#fff;stroke-miterlimit:10;stroke-width:2}.o{fill:none;stroke:#263238;stroke-miterlimit:10;stroke-width:2}.p{fill:#263238;stroke:#263238;stroke-linecap:round;stroke-linejoin:round;stroke-width:2}.q{fill:#92e3a9;stroke:#263238;stroke-linecap:round;stroke-linejoin:round;stroke-width:2}.r{fill:none;stroke:#263238;stroke-linecap:round;stroke-linejoin:round;stroke-width:2}</style><path class="a" d="m907.1 445.7c0 62.5-37 113.3-82.6 113.3-45.7 0-82.7-50.8-82.7-113.3 0-62.6 37-277.6 82.7-277.6 45.6 0 82.6 215 82.6 277.6z"/><path class="b" d="m870.8 478.4l-25 9.3 5-15.1-11.9 17.6-12 4.5-0.8-49.5 43.4-57.8-23.3 23.3 4-16.2-11.2 23.4-13.2 13.2-1.3-77.3-4.8 112.8-41.2-43.7 22.7 30.8-21.4-2.4 26.4 9.2 13.1 17.7-2.3 54.4-15.2-10.3 14.7 21.6-7 160.1h21.1l-3.6-201.5z"/><path class="c" d="m870 354.1c0 0 0.7 7.6-3.4 13.1-4.2 5.6-11.7 7.1-11.7 7.1 0 0-0.7-7.6 3.4-13.2 4.2-5.6 11.7-7 11.7-7z"/><path class="c" d="m894.9 389.1c0 0 0.7 7.6-3.4 13.1-4.2 5.6-11.7 7.1-11.7 7.1 0 0-0.7-7.6 3.4-13.2 4.2-5.6 11.7-7 11.7-7z"/><path class="c" d="m894.9 457.2c0 0-1.9 7.4-7.7 11.3-5.7 3.8-13.3 2.7-13.3 2.7 0 0 1.8-7.4 7.6-11.3 5.8-3.8 13.4-2.7 13.4-2.7z"/><path class="c" d="m758 457.2c0 0 1.9 7.4 7.7 11.3 5.7 3.8 13.3 2.7 13.3 2.7 0 0-1.9-7.4-7.6-11.3-5.8-3.8-13.4-2.7-13.4-2.7z"/><path class="c" d="m866.1 428.9c0 0 0.8 7.6-3.4 13.2-4.2 5.6-11.6 7-11.6 7 0 0-0.8-7.6 3.3-13.1 4.2-5.6 11.7-7.1 11.7-7.1z"/><path class="c" d="m859.6 316c0 0 0.8 7.6-3.4 13.2-4.1 5.5-11.6 7-11.6 7 0 0-0.8-7.6 3.4-13.2 4.1-5.6 11.6-7 11.6-7z"/><path class="c" d="m844.8 345c0 0 0.8 7.6-3.4 13.2-4.2 5.6-11.6 7-11.6 7 0 0-0.8-7.6 3.3-13.2 4.2-5.5 11.7-7 11.7-7z"/><path class="c" d="m880 323.9c0 0 0.8 7.6-3.4 13.2-4.1 5.5-11.6 7-11.6 7 0 0-0.8-7.6 3.4-13.2 4.1-5.6 11.6-7 11.6-7z"/><path class="c" d="m765.5 323.9c0 0-0.8 7.6 3.4 13.2 4.1 5.5 11.6 7 11.6 7 0 0 0.8-7.6-3.3-13.2-4.2-5.6-11.7-7-11.7-7z"/><path class="c" d="m862.9 280.5c0 0 0.7 7.6-3.4 13.2-4.2 5.5-11.7 7-11.7 7 0 0-0.7-7.6 3.4-13.2 4.2-5.6 11.7-7 11.7-7z"/><path class="c" d="m855.6 242.8c0 0 2.6 7.1 0 13.6-2.6 6.4-9.5 9.7-9.5 9.7 0 0-2.7-7.2 0-13.6 2.6-6.4 9.5-9.7 9.5-9.7z"/><path class="c" d="m803.3 232.9c0 0 6.8 3.6 9.1 10.1 2.4 6.5-0.5 13.6-0.5 13.6 0 0-6.8-3.6-9.2-10.1-2.3-6.5 0.6-13.6 0.6-13.6z"/><path class="c" d="m827.7 278c0 0 4.8 5.9 4.4 12.9-0.4 6.9-5.9 12.2-5.9 12.2 0 0-4.8-5.9-4.4-12.8 0.4-7 5.9-12.3 5.9-12.3z"/><path class="c" d="m826.4 210.9c0 0 4.8 5.9 4.4 12.8-0.4 7-5.9 12.3-5.9 12.3 0 0-4.8-5.9-4.4-12.8 0.4-7 5.9-12.3 5.9-12.3z"/><path class="c" d="m771.7 354.1c0 0-0.8 7.6 3.4 13.1 4.1 5.6 11.6 7.1 11.6 7.1 0 0 0.8-7.6-3.4-13.2-4.1-5.6-11.6-7-11.6-7z"/><path class="c" d="m757.5 395.4c0 0-0.8 7.6 3.4 13.1 4.1 5.6 11.6 7.1 11.6 7.1 0 0 0.8-7.6-3.4-13.2-4.1-5.6-11.6-7-11.6-7z"/><path class="c" d="m795.2 410.4c0 0-0.8 7.6 3.3 13.1 4.2 5.6 11.7 7.1 11.7 7.1 0 0 0.8-7.6-3.4-13.2-4.1-5.6-11.6-7-11.6-7z"/><path class="c" d="m805.5 353.1c0 0-2.9 7.1-0.6 13.6 2.4 6.6 9.2 10.1 9.2 10.1 0 0 2.9-7.1 0.5-13.6-2.4-6.5-9.1-10.1-9.1-10.1z"/><path class="c" d="m778.8 505.4c0 0 7.6 0.2 12.8-4.4 5.2-4.6 6.1-12.2 6.1-12.2 0 0-7.7-0.1-12.9 4.5-5.2 4.6-6 12.1-6 12.1z"/><path class="c" d="m852 497.1c0 0 2.1 7.3 8 11 5.9 3.7 13.4 2.3 13.4 2.3 0 0-2.1-7.4-8-11-5.9-3.7-13.4-2.3-13.4-2.3z"/><path class="c" d="m787.3 316c0 0-0.8 7.6 3.4 13.2 4.1 5.5 11.6 7 11.6 7 0 0 0.8-7.6-3.4-13.2-4.1-5.6-11.6-7-11.6-7z"/><path class="c" d="m787.2 282.4c0 0-0.8 7.6 3.3 13.2 4.2 5.6 11.7 7 11.7 7 0 0 0.8-7.6-3.4-13.2-4.1-5.5-11.6-7-11.6-7z"/><path class="d" d="m129.3 196.1h626.8v-166h-626.8z"/><path class="e" d="m129.3 71.3h626.8v-20.6h-626.8z"/><path class="f" d="m116.8 66h651.8v-25.1h-651.8z"/><path class="g" d="m742.6 598.8h-397.4v-259.4h397.4z"/><path class="h" d="m742.6 560h-397.4v-145.7h397.4z"/><path class="i" d="m742.6 419.9h-397.4v-11.1h397.4z"/><path class="a" d="m372.5 452.9c0 1.6-1.3 2.8-2.8 2.8-1.6 0-2.8-1.2-2.8-2.8 0-1.5 1.2-2.8 2.8-2.8 1.5 0 2.8 1.3 2.8 2.8z"/><path class="a" d="m385.6 452.9c0 1.6-1.3 2.8-2.8 2.8-1.6 0-2.8-1.2-2.8-2.8 0-1.5 1.2-2.8 2.8-2.8 1.5 0 2.8 1.3 2.8 2.8z"/><path class="a" d="m398.7 452.9c0 1.6-1.2 2.8-2.8 2.8-1.5 0-2.8-1.2-2.8-2.8 0-1.5 1.3-2.8 2.8-2.8 1.6 0 2.8 1.3 2.8 2.8z"/><path class="a" d="m411.9 452.9c0 1.6-1.3 2.8-2.8 2.8-1.6 0-2.8-1.2-2.8-2.8 0-1.5 1.2-2.8 2.8-2.8 1.5 0 2.8 1.3 2.8 2.8z"/><path class="a" d="m416.3 457h-53.9v17.1h53.9z"/><path class="j" d="m368.7 452.8c0 0-7.4 0.8-8.2 5.3-0.9 4.4 1.1 5.6 2.6 5 1.5-0.6 5.6-4.1 6.8-2.1 1.2 2.1 2.7 5 5 3.9 2.4-1.2 6.8-5.9 9.2-4.2 2.3 1.8 6.5 5.3 10.3 3.9 3.8-1.5 5.9-5.9 8.6-3.3 2.6 2.7 4.1 4.4 7.9 1.5 3.9-3 3.9-1.2 5 0 1.2 1.2 2.7 0.3 3-4.1 0.3-4.5-3.8-5.4-7.1-5.4-3.2 0-26.9 0-30.7-0.2-3.8-0.3-12.4-0.3-12.4-0.3z"/><path class="j" d="m415.8 475.5h-52.8c-0.9 0-1.7-0.7-1.7-1.6 0-0.9 0.8-1.7 1.7-1.7h52.8c0.9 0 1.6 0.8 1.6 1.7 0 0.9-0.7 1.6-1.6 1.6z"/><path class="j" d="m476.9 502.9h-38.4v17.1h38.4z"/><path class="a" d="m440.8 518.5c0 1.6-1.2 2.8-2.8 2.8-1.5 0-2.8-1.2-2.8-2.8 0-1.5 1.3-2.8 2.8-2.8 1.6 0 2.8 1.3 2.8 2.8z"/><path class="a" d="m454 518.5c0 1.6-1.3 2.8-2.8 2.8-1.6 0-2.8-1.2-2.8-2.8 0-1.5 1.2-2.8 2.8-2.8 1.5 0 2.8 1.3 2.8 2.8z"/><path class="a" d="m467.1 518.5c0 1.6-1.3 2.8-2.8 2.8-1.6 0-2.8-1.2-2.8-2.8 0-1.5 1.2-2.8 2.8-2.8 1.5 0 2.8 1.3 2.8 2.8z"/><path class="a" d="m480.2 518.5c0 1.6-1.2 2.8-2.8 2.8-1.5 0-2.8-1.2-2.8-2.8 0-1.5 1.3-2.8 2.8-2.8 1.6 0 2.8 1.3 2.8 2.8z"/><path class="j" d="m448.3 498.4c0 0.8-0.7 1.6-1.6 1.6-0.9 0-1.6-0.8-1.6-1.6 0-0.9 0.7-1.6 1.6-1.6 0.9 0 1.6 0.7 1.6 1.6z"/><path class="j" d="m455.6 498.4c0 0.8-0.7 1.6-1.6 1.6-0.8 0-1.5-0.8-1.5-1.6 0-0.9 0.7-1.6 1.5-1.6 0.9 0 1.6 0.7 1.6 1.6z"/><path class="j" d="m463 498.4c0 0.8-0.7 1.6-1.6 1.6-0.9 0-1.6-0.8-1.6-1.6 0-0.9 0.7-1.6 1.6-1.6 0.9 0 1.6 0.7 1.6 1.6z"/><path class="j" d="m470.3 498.4c0 0.8-0.7 1.6-1.5 1.6-0.9 0-1.6-0.8-1.6-1.6 0-0.9 0.7-1.6 1.6-1.6 0.8 0 1.5 0.7 1.5 1.6z"/><path class="a" d="m484.7 522.6h-54v17.1h54z"/><path class="j" d="m437.1 518.4c0 0-7.4 0.8-8.3 5.3-0.9 4.4 1.2 5.6 2.7 5 1.5-0.6 5.6-4.1 6.8-2.1 1.1 2.1 2.6 5 5 3.9 2.3-1.2 6.8-5.9 9.1-4.2 2.4 1.8 6.5 5.3 10.4 3.9 3.8-1.5 5.9-5.9 8.5-3.3 2.7 2.7 4.2 4.4 8 1.5 3.8-3 3.8-1.2 5 0 1.2 1.2 2.7 0.3 3-4.1 0.3-4.5-3.9-5.4-7.1-5.4-3.3 0-26.9 0-30.7-0.2-3.9-0.3-12.4-0.3-12.4-0.3z"/><path class="a" d="m443.8 497.7c0 0-5 0.7-5.6 4.4-0.6 3.7 0.8 4.7 1.8 4.2 1-0.5 3.8-3.4 4.6-1.7 0.8 1.7 1.8 4.2 3.4 3.2 1.6-1 4.6-4.9 6.2-3.5 1.6 1.5 4.4 4.5 7 3.2 2.6-1.2 4-4.9 5.8-2.7 1.8 2.2 2.8 3.7 5.4 1.3 2.6-2.5 2.6-1 3.4 0 0.8 0.9 1.8 0.2 2-3.5 0.2-3.7-2.6-4.4-4.8-4.4-2.2 0-18.2 0-20.8-0.3-2.6-0.2-8.4-0.2-8.4-0.2z"/><path class="j" d="m484.2 541.1h-52.9c-0.9 0-1.6-0.7-1.6-1.6 0-0.9 0.7-1.7 1.6-1.7h52.9c0.9 0 1.6 0.8 1.6 1.7 0 0.9-0.7 1.6-1.6 1.6z"/><path class="k" d="m557.8 502.9h-38.5v17.1h38.5z"/><path class="a" d="m521.7 518.5c0 1.6-1.3 2.8-2.8 2.8-1.6 0-2.8-1.2-2.8-2.8 0-1.5 1.2-2.8 2.8-2.8 1.5 0 2.8 1.3 2.8 2.8z"/><path class="a" d="m534.8 518.5c0 1.6-1.3 2.8-2.8 2.8-1.6 0-2.8-1.2-2.8-2.8 0-1.5 1.2-2.8 2.8-2.8 1.5 0 2.8 1.3 2.8 2.8z"/><path class="a" d="m547.9 518.5c0 1.6-1.2 2.8-2.8 2.8-1.5 0-2.8-1.2-2.8-2.8 0-1.5 1.3-2.8 2.8-2.8 1.6 0 2.8 1.3 2.8 2.8z"/><path class="a" d="m561.1 518.5c0 1.6-1.3 2.8-2.8 2.8-1.6 0-2.8-1.2-2.8-2.8 0-1.5 1.2-2.8 2.8-2.8 1.5 0 2.8 1.3 2.8 2.8z"/><path class="j" d="m529.1 498.4c0 0.8-0.7 1.6-1.6 1.6-0.8 0-1.6-0.8-1.6-1.6 0-0.9 0.8-1.6 1.6-1.6 0.9 0 1.6 0.7 1.6 1.6z"/><path class="j" d="m536.5 498.4c0 0.8-0.8 1.6-1.6 1.6-0.9 0-1.6-0.8-1.6-1.6 0-0.9 0.7-1.6 1.6-1.6 0.8 0 1.6 0.7 1.6 1.6z"/><path class="j" d="m543.8 498.4c0 0.8-0.7 1.6-1.6 1.6-0.8 0-1.5-0.8-1.5-1.6 0-0.9 0.7-1.6 1.5-1.6 0.9 0 1.6 0.7 1.6 1.6z"/><path class="j" d="m551.2 498.4c0 0.8-0.7 1.6-1.6 1.6-0.9 0-1.6-0.8-1.6-1.6 0-0.9 0.7-1.6 1.6-1.6 0.9 0 1.6 0.7 1.6 1.6z"/><path class="k" d="m565.5 522.6h-53.9v17.1h53.9z"/><path class="j" d="m517.9 518.4c0 0-7.4 0.8-8.2 5.3-0.9 4.4 1.1 5.6 2.6 5 1.5-0.6 5.6-4.1 6.8-2.1 1.2 2.1 2.7 5 5 3.9 2.4-1.2 6.8-5.9 9.2-4.2 2.3 1.8 6.5 5.3 10.3 3.9 3.8-1.5 5.9-5.9 8.6-3.3 2.6 2.7 4.1 4.4 7.9 1.5 3.9-3 3.9-1.2 5 0 1.2 1.2 2.7 0.3 3-4.1 0.3-4.5-3.8-5.4-7.1-5.4-3.2 0-26.8 0-30.7-0.2-3.8-0.3-12.4-0.3-12.4-0.3z"/><path class="a" d="m524.6 497.7c0 0-5 0.7-5.6 4.4-0.6 3.7 0.8 4.7 1.8 4.2 1-0.5 3.8-3.4 4.6-1.7 0.8 1.7 1.8 4.2 3.4 3.2 1.6-1 4.6-4.9 6.2-3.5 1.6 1.5 4.4 4.5 7 3.2 2.7-1.2 4.1-4.9 5.9-2.7 1.8 2.2 2.8 3.7 5.4 1.3 2.6-2.5 2.6-1 3.4 0 0.8 0.9 1.8 0.2 2-3.5 0.2-3.7-2.6-4.4-4.8-4.4-2.2 0-18.3 0-20.9-0.3-2.6-0.2-8.4-0.2-8.4-0.2z"/><path class="j" d="m565 541.1h-52.8c-0.9 0-1.7-0.7-1.7-1.6 0-0.9 0.8-1.7 1.7-1.7h52.8c0.9 0 1.6 0.8 1.6 1.7 0 0.9-0.7 1.6-1.6 1.6z"/><path class="a" d="m487.9 457h-54v17.1h54z"/><path class="j" d="m440.2 452.8c0 0-7.4 0.8-8.2 5.3-0.9 4.4 1.1 5.6 2.6 5 1.5-0.6 5.6-4.1 6.8-2.1 1.2 2.1 2.7 5 5 3.9 2.4-1.2 6.8-5.9 9.2-4.2 2.3 1.8 6.5 5.3 10.3 3.9 3.8-1.5 5.9-5.9 8.6-3.3 2.6 2.7 4.1 4.4 7.9 1.5 3.9-3 3.9-1.2 5 0 1.2 1.2 2.7 0.3 3-4.1 0.3-4.5-3.8-5.4-7.1-5.4-3.2 0-26.8 0-30.7-0.2-3.8-0.3-12.4-0.3-12.4-0.3z"/><path class="j" d="m487.3 475.5h-52.8c-0.9 0-1.7-0.7-1.7-1.6 0-0.9 0.8-1.7 1.7-1.7h52.8c0.9 0 1.6 0.8 1.6 1.7 0 0.9-0.7 1.6-1.6 1.6z"/><path class="j" d="m444 468.2c0 1.6-1.3 2.8-2.8 2.8-1.6 0-2.8-1.2-2.8-2.8 0-1.5 1.2-2.8 2.8-2.8 1.5 0 2.8 1.3 2.8 2.8z"/><path class="j" d="m457.1 468.2c0 1.6-1.3 2.8-2.8 2.8-1.5 0-2.8-1.2-2.8-2.8 0-1.5 1.3-2.8 2.8-2.8 1.5 0 2.8 1.3 2.8 2.8z"/><path class="j" d="m470.2 468.2c0 1.6-1.2 2.8-2.8 2.8-1.5 0-2.8-1.2-2.8-2.8 0-1.5 1.3-2.8 2.8-2.8 1.6 0 2.8 1.3 2.8 2.8z"/><path class="j" d="m483.4 468.2c0 1.6-1.3 2.8-2.8 2.8-1.6 0-2.8-1.2-2.8-2.8 0-1.5 1.2-2.8 2.8-2.8 1.5 0 2.8 1.3 2.8 2.8z"/><path class="a" d="m644.9 522.6h-54v17.1h54z"/><path class="j" d="m597.3 518.4c0 0-7.4 0.8-8.3 5.3-0.9 4.4 1.2 5.6 2.6 5 1.5-0.6 5.7-4.1 6.8-2.1 1.2 2.1 2.7 5 5 3.9 2.4-1.2 6.8-5.9 9.2-4.2 2.4 1.8 6.5 5.3 10.3 3.9 3.9-1.5 5.9-5.9 8.6-3.3 2.6 2.7 4.1 4.4 8 1.5 3.8-3 3.8-1.2 5 0 1.2 1.2 2.6 0.3 2.9-4.1 0.3-4.5-3.8-5.3-7.1-5.3-3.2 0-26.8 0-30.7-0.3-3.8-0.3-12.3-0.3-12.3-0.3z"/><path class="j" d="m644.3 541.1h-52.8c-0.9 0-1.6-0.7-1.6-1.6 0-0.9 0.7-1.7 1.6-1.7h52.8c0.9 0 1.7 0.8 1.7 1.7 0 0.9-0.8 1.6-1.7 1.6z"/><path class="j" d="m601 533.9c0 1.5-1.3 2.8-2.8 2.8-1.6 0-2.8-1.3-2.8-2.8 0-1.6 1.2-2.9 2.8-2.9 1.5 0 2.8 1.3 2.8 2.9z"/><path class="j" d="m614.1 533.9c0 1.5-1.2 2.8-2.8 2.8-1.5 0-2.8-1.3-2.8-2.8 0-1.6 1.3-2.9 2.8-2.9 1.6 0 2.8 1.3 2.8 2.9z"/><path class="j" d="m627.3 533.9c0 1.5-1.3 2.8-2.8 2.8-1.6 0-2.8-1.3-2.8-2.8 0-1.6 1.2-2.9 2.8-2.9 1.5 0 2.8 1.3 2.8 2.9z"/><path class="j" d="m640.4 533.9c0 1.5-1.3 2.8-2.8 2.8-1.6 0-2.8-1.3-2.8-2.8 0-1.6 1.2-2.9 2.8-2.9 1.5 0 2.8 1.3 2.8 2.9z"/><path class="k" d="m659 457h-54v17.1h54z"/><path class="j" d="m611.3 452.8c0 0-7.4 0.8-8.2 5.3-0.9 4.4 1.1 5.6 2.6 5 1.5-0.6 5.6-4.1 6.8-2.1 1.2 2.1 2.7 5 5 3.9 2.4-1.2 6.8-5.9 9.2-4.2 2.3 1.8 6.5 5.3 10.3 3.9 3.8-1.5 5.9-5.9 8.6-3.3 2.6 2.7 4.1 4.4 7.9 1.5 3.9-3 3.9-1.2 5.1 0 1.1 1.2 2.6 0.3 2.9-4.1 0.3-4.5-3.8-5.4-7.1-5.4-3.2 0-26.8 0-30.7-0.2-3.8-0.3-12.4-0.3-12.4-0.3z"/><path class="j" d="m658.4 475.5h-52.8c-0.9 0-1.7-0.7-1.7-1.6 0-0.9 0.8-1.7 1.7-1.7h52.8c0.9 0 1.6 0.8 1.6 1.7 0 0.9-0.7 1.6-1.6 1.6z"/><path class="j" d="m615.1 468.2c0 1.6-1.3 2.8-2.8 2.8-1.6 0-2.8-1.2-2.8-2.8 0-1.5 1.2-2.8 2.8-2.8 1.5 0 2.8 1.3 2.8 2.8z"/><path class="j" d="m628.2 468.2c0 1.6-1.2 2.8-2.8 2.8-1.5 0-2.8-1.2-2.8-2.8 0-1.5 1.3-2.8 2.8-2.8 1.6 0 2.8 1.3 2.8 2.8z"/><path class="j" d="m641.3 468.2c0 1.6-1.2 2.8-2.8 2.8-1.5 0-2.8-1.2-2.8-2.8 0-1.5 1.3-2.8 2.8-2.8 1.6 0 2.8 1.3 2.8 2.8z"/><path class="j" d="m654.5 468.2c0 1.6-1.3 2.8-2.8 2.8-1.6 0-2.8-1.2-2.8-2.8 0-1.5 1.2-2.8 2.8-2.8 1.5 0 2.8 1.3 2.8 2.8z"/><path class="a" d="m542.6 457h-35.3v17.1h35.3z"/><path class="j" d="m511.4 452.8c0 0-4.8 0.8-5.4 5.3-0.6 4.4 0.8 5.6 1.7 5 1-0.6 3.7-4.1 4.5-2.1 0.8 2.1 1.7 5 3.3 3.9 1.5-1.2 4.4-5.9 6-4.2 1.5 1.8 4.2 5.3 6.7 3.9 2.5-1.5 3.9-5.9 5.6-3.3 1.8 2.7 2.7 4.4 5.2 1.5 2.6-3 2.6-1.2 3.3 0 0.8 1.2 1.8 0.3 2-4.1 0.1-4.5-2.6-5.4-4.7-5.4-2.1 0-17.6 0-20.1-0.2-2.5-0.3-8.1-0.3-8.1-0.3z"/><path class="j" d="m541.7 475.5h-33.5c-0.9 0-1.6-0.7-1.6-1.6 0-0.9 0.7-1.7 1.6-1.7h33.5c0.9 0 1.6 0.8 1.6 1.7 0 0.9-0.7 1.6-1.6 1.6z"/><path class="j" d="m509.9 473.2q-0.2 0-0.4 0c-0.5-0.2-0.8-0.8-0.6-1.3 2.5-6.8 4.5-10.2 6.1-10.3 0.3 0 1.1 0 1.6 1.1 0.4 0.9 0.8 2.1 1.2 3.3 0.5 1.5 1.4 4.7 2.1 4.9 0.9-0.7 1.8-2.6 2.6-4.2 1.2-2.6 2.1-4.6 3.6-4.7 0.5 0 1.2 0.1 1.7 1 0.8 1.2 1.3 2.7 1.7 4.2 0.4 1.3 0.9 3 1.5 3.3 0 0 0.1 0 0.4-0.1 0.9-0.4 1.7-2.6 2.4-4.3 0.8-2.1 1.5-3.9 2.8-4.2 0.4-0.1 1-0.1 1.7 0.4 2.6 2.1 3.5 8.2 3.6 8.9 0.1 0.6-0.3 1.1-0.8 1.1-0.5 0.1-1.1-0.3-1.1-0.8-0.3-1.7-1.3-6.3-3-7.6-0.3 0.1-1 1.9-1.4 2.9-0.8 2.4-1.8 4.8-3.5 5.5-0.9 0.3-1.6 0.2-2 0-1.3-0.7-1.9-2.5-2.5-4.6-0.4-1.3-0.8-2.7-1.4-3.6-0.5 0.5-1.4 2.3-1.9 3.4-1 2.1-1.9 4-3 4.9-0.8 0.6-1.5 0.6-2 0.4-1.6-0.5-2.5-3.1-3.4-6.2-0.4-1-0.7-2-1-2.8-1 1.2-2.8 5.2-4.1 8.8-0.1 0.4-0.5 0.6-0.9 0.6z"/><path class="j" d="m584.2 457h-35.3v17.1h35.3z"/><path class="k" d="m553 452.8c0 0-4.8 0.8-5.4 5.3-0.6 4.4 0.8 5.6 1.7 5 1-0.6 3.7-4.1 4.5-2.1 0.7 2.1 1.7 5 3.3 3.9 1.5-1.2 4.4-5.9 5.9-4.2 1.6 1.8 4.3 5.3 6.8 3.9 2.5-1.5 3.9-5.9 5.6-3.3 1.7 2.7 2.7 4.4 5.2 1.5 2.5-3 2.5-1.2 3.3 0 0.8 1.2 1.7 0.3 1.9-4.1 0.2-4.5-2.5-5.4-4.6-5.4-2.1 0-17.6 0-20.1-0.2-2.5-0.3-8.1-0.3-8.1-0.3z"/><path class="j" d="m583.2 475.5h-33.4c-0.9 0-1.6-0.7-1.6-1.6 0-0.9 0.7-1.7 1.6-1.7h33.4c0.9 0 1.7 0.8 1.7 1.7 0 0.9-0.8 1.6-1.7 1.6z"/><path class="a" d="m551.5 473.2q-0.2 0-0.4 0c-0.5-0.2-0.8-0.8-0.6-1.3 2.4-6.8 4.5-10.2 6.1-10.3 0.3 0 1.1 0 1.6 1.1 0.4 0.9 0.8 2.1 1.2 3.3 0.4 1.5 1.4 4.7 2.1 4.9 0.9-0.7 1.8-2.6 2.5-4.2 1.3-2.6 2.2-4.6 3.7-4.7 0.5 0 1.1 0.1 1.7 1 0.8 1.2 1.3 2.7 1.7 4.2 0.4 1.3 0.9 3 1.4 3.3 0.1 0 0.2 0 0.4-0.1 1-0.4 1.8-2.6 2.5-4.3 0.8-2.1 1.4-3.9 2.7-4.2 0.4-0.1 1.1-0.1 1.8 0.4 2.5 2.1 3.5 8.2 3.6 8.9 0.1 0.6-0.3 1.1-0.8 1.1-0.5 0.1-1.1-0.3-1.2-0.8-0.2-1.7-1.2-6.3-2.9-7.6-0.3 0.1-1 1.9-1.4 2.9-0.9 2.4-1.8 4.8-3.5 5.5-0.9 0.3-1.6 0.2-2 0-1.4-0.7-1.9-2.5-2.5-4.6-0.4-1.3-0.8-2.7-1.4-3.6-0.6 0.5-1.4 2.3-2 3.4-0.9 2.1-1.8 4-3 4.9-0.7 0.6-1.4 0.6-1.9 0.4-1.6-0.5-2.5-3.1-3.4-6.2-0.4-1-0.7-2-1-2.8-1 1.2-2.8 5.2-4.1 8.8-0.2 0.4-0.5 0.6-0.9 0.6z"/><path class="k" d="m720.4 474.8v-19.1h-34.7v19.1z"/><path class="j" d="m720.4 461.2v-5.5h-34.7v5.5z"/><path class="l" d="m720.4 474.8v-19.1h-15.8v19.1z"/><path class="m" d="m720.4 460.9v-5.2h-15.8v5.2z"/><path class="g" d="m720.4 467.6v-4.7h-15.8v4.7z"/><path class="j" d="m691.7 466c0 1-0.9 1.9-1.9 1.9-1 0-1.9-0.9-1.9-1.9 0-1 0.9-1.8 1.9-1.8 1 0 1.9 0.8 1.9 1.8z"/><path class="j" d="m700.8 465.9c0 0.7-0.5 1.2-1.2 1.2-0.7 0-1.2-0.5-1.2-1.2 0-0.7 0.5-1.2 1.2-1.2 0.7 0 1.2 0.5 1.2 1.2z"/><path class="j" d="m696.6 470.6c0 0.8-0.6 1.5-1.5 1.5-0.8 0-1.5-0.7-1.5-1.5 0-0.8 0.7-1.5 1.5-1.5 0.9 0 1.5 0.7 1.5 1.5z"/><path class="j" d="m703.6 471c0 0.7-0.6 1.3-1.4 1.3-0.8 0-1.4-0.6-1.4-1.3 0-0.8 0.6-1.4 1.4-1.4 0.8 0 1.4 0.6 1.4 1.4z"/><path class="k" d="m418.5 542.1v-19.1h-50.9v19.1z"/><path class="j" d="m418.5 528.4v-5.4h-50.9v5.4z"/><path class="l" d="m418.5 542.1v-19.1h-15.9v19.1z"/><path class="m" d="m418.5 528.2v-5.2h-15.9v5.2z"/><path class="g" d="m418.5 534.9v-4.7h-15.9v4.7z"/><path class="j" d="m389.7 533.3c0 1-0.8 1.8-1.8 1.8-1.1 0-1.9-0.8-1.9-1.8 0-1.1 0.8-1.9 1.9-1.9 1 0 1.8 0.8 1.8 1.9z"/><path class="j" d="m380.6 531.6c0 1-0.9 1.8-1.9 1.8-1 0-1.9-0.8-1.9-1.8 0-1.1 0.9-1.9 1.9-1.9 1 0 1.9 0.8 1.9 1.9z"/><path class="j" d="m398.9 533.1c0 0.7-0.6 1.3-1.2 1.3-0.7 0-1.3-0.6-1.3-1.3 0-0.6 0.6-1.2 1.3-1.2 0.6 0 1.2 0.6 1.2 1.2z"/><path class="j" d="m373 531.6c0 0.7-0.6 1.3-1.2 1.3-0.7 0-1.3-0.6-1.3-1.3 0-0.7 0.6-1.2 1.3-1.2 0.6 0 1.2 0.5 1.2 1.2z"/><path class="j" d="m394.7 537.9c0 0.8-0.7 1.4-1.5 1.4-0.8 0-1.5-0.6-1.5-1.4 0-0.9 0.7-1.5 1.5-1.5 0.8 0 1.5 0.6 1.5 1.5z"/><path class="j" d="m372.8 538.3c0 0.8-0.7 1.5-1.5 1.5-0.9 0-1.5-0.7-1.5-1.5 0-0.8 0.6-1.5 1.5-1.5 0.8 0 1.5 0.7 1.5 1.5z"/><path class="j" d="m379.2 538.1c0 0.8-0.7 1.5-1.5 1.5-0.8 0-1.5-0.7-1.5-1.5 0-0.8 0.7-1.5 1.5-1.5 0.8 0 1.5 0.7 1.5 1.5z"/><path class="j" d="m401.6 538.2c0 0.8-0.6 1.4-1.3 1.4-0.8 0-1.4-0.6-1.4-1.4 0-0.7 0.6-1.3 1.4-1.3 0.7 0 1.3 0.6 1.3 1.3z"/><path class="a" d="m714.5 542.1v-19.1h-50.9v19.1z"/><path class="j" d="m714.5 528.4v-5.4h-50.9v5.4z"/><path class="l" d="m714.5 542.1v-19.1h-15.9v19.1z"/><path class="m" d="m714.5 528.2v-5.2h-15.9v5.2z"/><path class="g" d="m714.5 534.9v-4.7h-15.9v4.7z"/><path class="j" d="m685.7 533.3c0 1-0.8 1.8-1.8 1.8-1 0-1.9-0.8-1.9-1.8 0-1.1 0.9-1.9 1.9-1.9 1 0 1.8 0.8 1.8 1.9z"/><path class="j" d="m676.6 531.6c0 1-0.9 1.8-1.9 1.8-1 0-1.8-0.8-1.8-1.8 0-1.1 0.8-1.9 1.8-1.9 1 0 1.9 0.8 1.9 1.9z"/><path class="j" d="m694.9 533.1c0 0.7-0.5 1.3-1.2 1.3-0.7 0-1.3-0.6-1.3-1.3 0-0.6 0.6-1.2 1.3-1.2 0.7 0 1.2 0.6 1.2 1.2z"/><path class="j" d="m669 531.6c0 0.7-0.5 1.3-1.2 1.3-0.7 0-1.3-0.6-1.3-1.3 0-0.7 0.6-1.2 1.3-1.2 0.7 0 1.2 0.5 1.2 1.2z"/><path class="j" d="m690.7 537.9c0 0.8-0.7 1.4-1.5 1.4-0.8 0-1.5-0.6-1.5-1.4 0-0.9 0.7-1.5 1.5-1.5 0.8 0 1.5 0.6 1.5 1.5z"/><path class="j" d="m668.8 538.3c0 0.8-0.7 1.5-1.5 1.5-0.8 0-1.5-0.7-1.5-1.5 0-0.8 0.7-1.5 1.5-1.5 0.8 0 1.5 0.7 1.5 1.5z"/><path class="j" d="m675.2 538.1c0 0.8-0.7 1.5-1.5 1.5-0.8 0-1.5-0.7-1.5-1.5 0-0.8 0.7-1.5 1.5-1.5 0.8 0 1.5 0.7 1.5 1.5z"/><path class="j" d="m697.6 538.2c0 0.8-0.6 1.4-1.3 1.4-0.8 0-1.4-0.6-1.4-1.4 0-0.7 0.6-1.3 1.4-1.3 0.7 0 1.3 0.6 1.3 1.3z"/><path class="i" d="m742.6 485.7h-397.4v-11.1h397.4z"/><path class="i" d="m742.6 595.9h-397.4v-55.6h397.4z"/><path class="n" d="m671.6 376.6l-106.9 107"/><path class="n" d="m604.8 429.9l-51.8 51.8"/><path class="n" d="m534.4 453.5l-107 106.9"/><path class="n" d="m467.6 506.8l-51.8 51.7"/><path fill-rule="evenodd" class="d" d="m758.5 300.3v403.7h-642.7v-403.7zm-19.2 47.1h-386.7v245.6h386.7z"/><path class="e" d="m331.4 704h-176.1v-357h176.1z"/><path class="i" d="m318.2 677.4h-149.7v-303.7h149.7z"/><path class="e" d="m318.2 520.2h-149.7v-5.7h149.7z"/><path class="e" d="m318.2 545h-149.7v-5.7h149.7z"/><path class="e" d="m759 348.2h-642.8v-23.3h642.8z"/><path class="f" d="m134.8 334.3h-41v-45.1h41z"/><path class="d" d="m175.8 334.3h-41v-45.1h41z"/><path class="f" d="m216.9 334.3h-41.1v-45.1h41.1z"/><path class="d" d="m257.9 334.3h-41v-45.1h41z"/><path class="f" d="m298.9 334.3h-41v-45.1h41z"/><path class="d" d="m340 334.3h-41.1v-45.1h41.1z"/><path class="f" d="m381 334.3h-41v-45.1h41z"/><path class="d" d="m422.1 334.3h-41.1v-45.1h41.1z"/><path class="f" d="m463.1 334.3h-41v-45.1h41z"/><path class="d" d="m504.1 334.3h-41v-45.1h41z"/><path class="f" d="m545.2 334.3h-41.1v-45.1h41.1z"/><path class="d" d="m586.2 334.3h-41v-45.1h41z"/><path class="f" d="m627.2 334.3h-41v-45.1h41z"/><path class="d" d="m668.3 334.3h-41.1v-45.1h41.1z"/><path class="f" d="m709.3 334.3h-41v-45.1h41z"/><path class="d" d="m750.3 334.3h-41v-45.1h41z"/><path class="f" d="m791.4 334.3h-41.1v-45.1h41.1z"/><path class="f" d="m134.8 289.9h-41l34.9-116.3h36.9z"/><path class="d" d="m175.8 289.9h-41l30.8-116.3h36.9z"/><path class="f" d="m216.9 289.9h-41.1l26.7-116.3h36.9z"/><path class="d" d="m257.9 289.9h-41l22.5-116.3h37z"/><path class="f" d="m298.9 289.9h-41l18.5-116.3h36.9z"/><path class="d" d="m340 289.9h-41.1l14.4-116.3h36.9z"/><path class="f" d="m381 289.9h-41l10.2-116.3h37z"/><path class="d" d="m422.1 289.9h-41.1l6.2-116.3h36.9z"/><path class="f" d="m463.1 289.9h-41l2-116.3h36.9z"/><path class="d" d="m504.1 289.9h-41l-2.1-116.3h37z"/><path class="f" d="m545.2 289.9h-41.1l-6.1-116.3h36.9z"/><path class="d" d="m586.2 289.9h-41l-10.3-116.3h36.9z"/><path class="f" d="m627.2 289.9h-41l-14.4-116.3h37z"/><path class="d" d="m668.3 289.9h-41.1l-18.4-116.3h36.9z"/><path class="f" d="m709.3 289.9h-41l-22.6-116.3h36.9z"/><path class="d" d="m750.3 289.9h-41l-26.7-116.3h37z"/><path class="f" d="m791.4 289.9h-41.1l-30.7-116.3h36.9z"/><path class="d" d="m764.8 604.7h-437.7v-11.7h437.7z"/><path class="d" d="m431.1 692.3h-83.7v-76.9h83.7z"/><path class="d" d="m431.1 615.4l-83.7 76.9"/><path class="d" d="m347.4 615.4l83.7 76.9"/><path class="d" d="m416.2 678.6h-53.9v-49.5h53.9z"/><path class="d" d="m536.8 692.3h-83.7v-76.9h83.7z"/><path class="d" d="m536.8 615.4l-83.7 76.9"/><path class="d" d="m453.1 615.4l83.7 76.9"/><path class="d" d="m521.9 678.6h-53.9v-49.5h53.9z"/><path class="d" d="m642.5 692.3h-83.7v-76.9h83.7z"/><path class="d" d="m642.5 615.4l-83.7 76.9"/><path class="d" d="m558.8 615.4l83.7 76.9"/><path class="d" d="m627.6 678.6h-53.9v-49.5h53.9z"/><path class="d" d="m748.2 692.3h-83.7v-76.9h83.7z"/><path class="d" d="m748.2 615.4l-83.7 76.9"/><path class="d" d="m664.5 615.4l83.7 76.9"/><path class="d" d="m733.3 678.6h-53.9v-49.5h53.9z"/><path class="d" d="m441.9 606v97.5"/><path class="d" d="m546.8 606v97.5"/><path class="d" d="m653.3 606v97.5"/><path class="d" d="m291 17.4c-1.7 0-3.4-0.3-4.9-0.8v129.9c1.5-0.5 3.2-0.8 4.9-0.8 8.8 0 15.9 7.2 15.9 16q0 1-0.1 1.9h276.8q-0.2-0.9-0.2-1.9c0-8.8 7.2-16 16-16v-128.3c-8.8 0-16-7.1-16-15.9h-276.5c0 8.8-7.1 15.9-15.9 15.9z"/><path class="f" d="m313.9 155.8c-2.3-9.3-10.3-16.5-20.1-17.7v-113.1c9.1-1.1 16.6-7.3 19.6-15.7h263.6c2.3 6.8 7.7 12.2 14.6 14.6v115.4c-7.5 2.6-13.3 8.8-15.2 16.5z"/><path fill-rule="evenodd" class="b" d="m354 79.6v-55.7h14.5q3.6 0 6.8 0.5 3.2 0.6 5.6 2.1 2.5 1.6 3.9 4.4 1.4 2.9 1.4 7.6 0 3.3-1 5.6-1 2.3-2.8 3.7-1.8 1.4-4.4 1.9 3.3 0.4 5.5 2.1 2.2 1.7 3.3 4.5 1.2 2.8 1.2 6.8 0 4.3-1.2 7.5-1.1 3.1-3.2 5.1-2.2 2-5.3 2.9-3.1 1-7.2 1zm12.3-33.4h2.4q2.8 0 4.3-0.9 1.4-0.9 2-2.5 0.5-1.7 0.5-4 0-2.2-0.8-3.7-0.8-1.5-2.4-2.2-1.5-0.8-3.9-0.8h-2.1zm0 24.9h2.6q4.1 0 5.6-2.1 1.6-2.1 1.6-6 0-3.2-0.7-5.1-0.7-1.8-2.3-2.7-1.6-0.8-4.2-0.8h-2.6z"/><path fill-rule="evenodd" class="b" d="m391.6 79.6l10.5-55.7h14.1l10.4 55.7h-11.4l-1.9-11.8h-8.1l-2 11.8zm14.7-19.1h5.9l-3-21.8z"/><path class="b" d="m431.7 79.6v-55.7h12.3v22.8l9.3-22.8h12.1l-10.4 25.2 10.9 30.5h-12.6l-8-24.6-1.3 2.2v22.4z"/><path class="b" d="m469.5 79.6v-55.7h25v8.4h-12.7v13.8h9.7v8.5h-9.7v16.7h12.9v8.3z"/><path fill-rule="evenodd" class="b" d="m500.3 79.6v-55.7h15.3q5.6 0 9.8 1.2 4.1 1.3 6.4 4.5 2.3 3.2 2.3 9 0 3.4-0.5 6.1-0.6 2.7-2.1 4.7-1.4 1.9-4.2 3.2l7.6 27h-12.7l-6.1-25h-3.5v25zm12.3-32.1h3.4q2.7 0 4.1-0.9 1.4-0.9 2-2.7 0.6-1.7 0.6-4.2 0-3.6-1.3-5.6-1.3-2-4.8-2h-4z"/><path class="b" d="m547.3 79.6v-22.8l-10.6-32.9h11.6l5.3 17.6 4.7-17.6h11.2l-10.4 32.9v22.8z"/><path class="b" d="m434.3 143.3q-5.2 0-8.7-1.9-3.5-1.8-5.3-5.7-1.8-3.9-2-10.1l10.5-1.6q0.1 3.6 0.7 5.8 0.6 2.2 1.6 3.2 1.1 0.9 2.6 0.9 1.9 0 2.5-1.3 0.6-1.3 0.6-2.7 0-3.5-1.6-5.9-1.7-2.3-4.5-4.7l-4.8-4.2q-3.2-2.7-5.4-6.1-2.1-3.4-2.1-8.5 0-7 4.2-10.8 4.2-3.7 11.4-3.7 4.5 0 7.2 1.5 2.7 1.5 4.1 3.9 1.4 2.5 1.9 5.2 0.6 2.7 0.6 5.2l-10.6 1.3q0-2.5-0.3-4.3-0.2-1.8-1-2.8-0.7-1-2.3-1-1.7 0-2.5 1.4-0.8 1.5-0.8 2.9 0 3.1 1.5 5.1 1.4 1.9 3.8 4.1l4.7 4q3.6 3.1 6.1 7 2.5 4 2.5 9.7 0 4-1.8 7.2-1.8 3.2-5 5-3.3 1.9-7.8 1.9z"/><path class="b" d="m454 142.4v-55.7h12.3v22.6h8.6v-22.6h12.4v55.7h-12.4v-24.3h-8.6v24.3z"/><path fill-rule="evenodd" class="b" d="m511.7 143.3q-6.2 0-9.9-2.2-3.6-2.2-5.2-6.4-1.6-4.1-1.6-9.8v-20.7q0-5.8 1.6-9.9 1.6-4 5.2-6.2 3.7-2.1 9.9-2.1 6.4 0 10.1 2.1 3.6 2.2 5.2 6.2 1.6 4.1 1.6 9.9v20.7q0 5.7-1.6 9.8-1.6 4.2-5.2 6.4-3.7 2.2-10.1 2.2zm0-8.8q2 0 2.9-0.9 0.9-1 1.1-2.5 0.3-1.5 0.3-3.1v-26.8q0-1.7-0.3-3.2-0.2-1.4-1.1-2.4-0.9-1-2.9-1-1.7 0-2.6 1-0.9 1-1.2 2.4-0.3 1.5-0.3 3.2v26.8q0 1.6 0.3 3.1 0.2 1.5 1.1 2.5 0.8 0.9 2.7 0.9z"/><path fill-rule="evenodd" class="b" d="m536.1 142.4v-55.7h18.7q5.1 0 8.3 1.9 3.2 1.9 4.8 5.5 1.6 3.6 1.6 8.8 0 6.5-2.1 9.9-2.2 3.4-5.8 4.7-3.7 1.3-8.2 1.3h-5v23.6zm12.3-32.2h4.2q2.2 0 3.4-0.8 1.2-0.9 1.6-2.5 0.3-1.7 0.3-4.2 0-2.2-0.3-3.8-0.3-1.6-1.4-2.6-1.2-0.9-3.7-0.9h-4.1z"/><path class="d" d="m396.3 124.1c0 0 18.7-10.4 18.1-18.5-0.7-8.1-9.1-8.2-16.2-6.7-7 1.6-15.2 2.7-15.2 2.7z"/><path class="d" d="m343.6 75.4c0 0-1.5-17.3-5.5-21.4-3.9-4-10-4.5-15 3.5-5 8-5 22.8-5 22.8z"/><path class="d" d="m371.4 137.9c0 0 12.1 0.3 20.3-3.1 8.1-3.3 7.9-7.1 7.5-12.1-0.4-5-8.1-24.1-13.1-26.7-4.9-2.7-7.7-4.3-12.4-0.8-4.7 3.5-2.3 42.7-2.3 42.7z"/><path class="d" d="m318.5 110.4c0 0-8-12.6-7.6-22.4 0.3-9.9 2.8-11 7.2-12.6 4.5-1.6 21.8-5.5 28.6-2.6 6.7 3 4.9 12.6 4.9 12.6z"/><path class="d" d="m374.6 139.1c0 0 1.6-40.1-0.9-43.9-2.5-3.8-14.7-10.6-19.5-12.1-4.7-1.4-33.2 18.2-38.6 26.5-5.5 8.3 9.9 30 27.6 36.2 17.7 6.1 28.3 1.2 31.4-6.7z"/><path class="e" d="m275.7 493.4h-64.7v-40.1h64.7z"/><path class="o" d="m211 453.3l32.7-25.2 32 25.2"/><path fill-rule="evenodd" class="a" d="m225 483.9q-2.1 0-3.4-0.8-1.2-0.8-1.8-2.2-0.5-1.4-0.5-3.4v-7.3q0-2 0.5-3.4 0.6-1.4 1.8-2.1 1.3-0.8 3.4-0.8 2.2 0 3.4 0.8 1.3 0.7 1.8 2.1 0.6 1.4 0.6 3.4v7.3q0 2-0.6 3.4-0.5 1.4-1.8 2.2-1.2 0.8-3.4 0.8zm0-2.9q0.8 0 1.1-0.3 0.4-0.4 0.5-1 0.1-0.6 0.1-1.2v-9.2q0-0.7-0.1-1.3-0.1-0.6-0.5-0.9-0.3-0.4-1.1-0.4-0.7 0-1.1 0.4-0.3 0.3-0.4 0.9-0.2 0.6-0.2 1.3v9.2q0 0.6 0.1 1.2 0.2 0.6 0.5 1 0.4 0.3 1.1 0.3z"/><path fill-rule="evenodd" class="a" d="m233.4 483.6v-19.4h6.2q1.7 0 2.8 0.6 1.1 0.7 1.7 1.9 0.5 1.3 0.5 3 0 2.1-0.7 3.3-0.7 1.2-1.9 1.7-1.2 0.5-2.8 0.5h-1.8v8.4zm3.9-11.2h1.4q0.9 0 1.4-0.3 0.4-0.3 0.6-0.9 0.2-0.6 0.2-1.5 0-0.9-0.2-1.5-0.1-0.6-0.6-0.9-0.4-0.4-1.4-0.4h-1.4z"/><path class="a" d="m246.5 483.6v-19.4h8.5v2.7h-4.5v5.1h3.5v2.8h-3.5v6.1h4.5v2.7z"/><path class="a" d="m257 483.6v-19.4h2.8l4.3 10.1v-10.1h3.3v19.4h-2.7l-4.3-10.8v10.8z"/><path class="b" d="m110.3 558.5c-5.6-2.3-16.7-5.8-18-3.7-1.2 2.1-5.6 6.4-5.6 6.4 0 0-2.5-7.1-4.6-7.5-2.1-0.3-11.1-0.5-13.1 0-1.9 0.6 5.2 5.5 11.2 9.2 1.4 0.9 2.8 1.6 4 2.1-0.3 1.5-1.1 5.8-0.6 9.7 0.5 4.9 0.6 18.1-1.8 26.4-2.6 9.1-6.5 39.6-4.7 50.1l1.9-0.4c-1.7-10.2 2.2-40.1 4.8-49.1 2.4-8.6 2.4-22.2 1.8-27.3-0.4-3.3 0.2-7 0.5-8.7 2.9 1.1 5.2 1.5 7.1 2.7 3 1.9 4.1 3.5 4.1 3.5 0 0 0.3-2.1 1.2-1.9 0.9 0.2 13.1 3 15.2 2.6 2.1-0.3 2.3-11.8-3.4-14.1z"/><path class="p" d="m71.4 647.7c0-0.3-4.6-23.1-6-30.8-0.7-3.9-1.7-14.5-2.6-24.8-0.9-10-1.9-20.3-2.5-23.2-1.2-5.4-4.5-8.8-4.5-8.8l1.4-1.4c0.2 0.1 3.8 3.8 5.1 9.8 0.6 3 1.5 12.9 2.5 23.4 0.9 10.3 1.9 20.8 2.6 24.7 1.4 7.6 5.9 30.4 6 30.7z"/><path class="p" d="m77.5 646.8l-2-0.1c0 0 0.1-5.9 0.5-11 0.3-4.9 0.2-54.6 0-80-0.2-22.9-0.2-53-0.2-53.3h2c0 0.3 0 30.4 0.2 53.3 0.2 21.6 0.4 74.9 0 80.2-0.4 5-0.5 10.8-0.5 10.9z"/><path class="p" d="m78.7 646.4l-2-0.4c1.6-9 9.9-40.7 21-57.9 11.2-17.3 20.6-29.7 20.7-29.9l1.6 1.3c-0.1 0.1-9.5 12.5-20.6 29.7-11 16.9-19.1 48.3-20.7 57.2z"/><path class="q" d="m120.1 552.1c0 0-0.5-7-7.5-10.3-7-3.4-10.8-4.4-11.8 4.8-1 9.1 0.2 17.6 0.2 17.6 0 0 5.3-9.4 9.4-10.6 4.1-1.2 7 1.9 4.9 3.1-2.2 1.2-9.2 5.6-11.6 7.2-2.4 1.7-1.9 2.4-0.3 5.6 1.7 3.1 5.1 11.1 5.1 11.1 0 0 3.1-13.8 4.6-16.2 1.4-2.4 6.5 0 4.8 4.1-1.7 4.1-6.3 15-6.3 15 0 0 6.3 6.7 9.4 8.6 3.2 2 5.6 9 5.6 9 0 0 2.2-2.2 7.9-4.4 5.8-2.1 14-5.8 13.5-8.2-0.4-2.4-2.6-5.3-7.2-11.3-4.6-6-11.6-11.8-8.7-12.1 2.9-0.2 18.3 7 19.8 10.4 1.4 3.4-0.5 9.9-0.5 9.9 0 0 4.6-6.3 4.6-9.6 0-3.4-1.9-6.1-1.9-6.1 0 0-9.9-7.4-14-9.6-4.1-2.2-4.4-4.6-3.2-4.6 1.3 0 14 3.4 16.4 6.5 2.5 3.1 2.5 5.1 2.7 5.8 0.2 0.7-2.9-16.9-7-20.5-4.1-3.6-12.8-6.5-17.8-4.6-5.1 2-7.3 3.4-8 4.8-0.7 1.5-3.1 4.6-3.1 4.6z"/><path class="r" d="m138 577.7c0 0-4.9-6.1-5.9-4.1-0.9 2 6.5 11.6 7.3 10.9 0.8-0.8 0.8-3.8-1.4-6.8z"/><path class="r" d="m122.6 553.3c0 0 16.2-3 21.2-1.4"/><path class="r" d="m123 557.2c0 0 13.2 3.3 18.4 7.4"/><path class="r" d="m122.7 558.5c0 0-7.4 0.9-11 3.8-3.6 2.8-3.9 3.8-3.9 3.8"/><path class="r" d="m108.7 549.1c0 0 1.7 0.3 5.2 2.2 3.5 1.9 7.1 2.8 7.1 2.8 0 0 5.8 9.4 7.1 17.8 1.2 8.3 0.1 22.6 0 23.2"/><path class="r" d="m126.2 565.9c0 0-3.8 6.3-5.8 11.6"/><path class="q" d="m77.6 497.5c0 0-1.1-3.9-1.1-6.9 0-3 3.1-7.1-2.1-9-5.1-1.9-15.1-6.6-16.9-9.1-1.9-2.5-2.1-4.6-6.5-5.2-4.4-0.6-8.2-0.5-13.8 3-5.7 3.5-7.1 7.5-7.1 7.5 0 0 2.2-1.5 14.8 0.8 12.6 2.4 19.2 10.1 15.9 10.4-3.3 0.3-21.1-7.7-25.5-8.6-4.4-1-6.9-1.5-9.6 1.4-2.7 2.8-3.5 9.1-3.5 9.1 0 0 7.4-5 16.1-4.3 8.6 0.8 22.1 7.8 20.3 8.5-1.9 0.8-13.4-4.5-21.6-3.3-8.2 1.3-13.2 2.1-13.8 5.2-0.6 3.2 2.2 5.2 2.2 5.2 0 0-1.7-3 4.5-6.3 6.3-3.3 16.6-2.5 16.6-1.7 0 0.8-5.9 0.2-10 2.2-4 2-9.4 5-7.7 6.1 1.8 1.1 5.7 3.6 6.5 5.8 0.8 2.2 0.6 7.1 1.2 5.6 0.7-1.6 1.5-6.3 2.9-7.3 1.4-0.9 17-0.3 17-0.3 0 0 6.4-3.3 7.2-4.9 0.8-1.5 1.1-4.2 4.7-3.4 3.6 0.8 3.5 2.3 1.4 5.8-2 3.4-7.4 7.4-7.4 7.4 0 0 8.7-4.7 12.6-5.2 3.9-0.5 6.1-2.1 5.4-3.8-0.8-1.7-2.2-3.3 0.1-3.6 2.4-0.3 5.8-0.3 6.1 1.6 0.4 1.9-2.8 3.9-2.8 3.9 0 0 12.8-3.5 15.7-6 3-2.5 5.5-4.2 4.6-5.5-0.9-1.2-5.8-0.1-5.8-0.1 0 0-4.6-3.8-9.9-1.6-5.4 2.2-7.3 5.2-8.2 6-0.9 0.8-2.5 0.6-2.5 0.6z"/><path class="r" d="m55.4 476.7c0.5-0.1 6.9 6.5 10.2 11.8 3.3 5.4 12 9 12 9 0 0-12-0.9-16.2-0.8-4.3 0.2-15.1 2.4-19 5.2"/><path class="r" d="m80.1 496.9c0 0 12.7-2.8 14-0.9"/><path class="r" d="m71.4 497.1c0 0-8.4-3-12.3-5-3.8-2.1-16.3-8.4-25.9-8.2"/><path class="q" d="m57.8 554.6c0 0 5.6-7.6 4-8.6-1.6-1.1-17.5 3-21.5 4.2-4.1 1.2-11.5 1.4-19.8 2.8-8.3 1.4-9.3 3.9-11.6 4.1-2.3 0.2-3.9 0-5.3 0.7-1.4 0.7-1.4 0.7-1.4 0.7 0 0 3.3 0.9 4.9 1.8 1.6 0.9 6.7 1 7.2 1.7 0.6 0.7 8.2 4.1 17.2 6.4 9 2.3 21.5-6.9 25-9 3.5-2.1 6.5-3.9 6.9-5.7 0.4-1.7-5.6 0.9-5.6 0.9z"/><path class="r" d="m57.8 554.6c0 0-3.6 3.7-5.3 4.1-1.8 0.3-12.6 3.2-20.9 3.2-8.3 0-22-2.3-22-2.3"/><path class="r" d="m49.1 551.1c0 0 2.1 3.9 3.5 5.1 1.4 1.2 1.4 1.2 1.4 1.2"/><path class="r" d="m49.3 559.6c0 0-7.3-4.3-11-5.2-3.7-0.8-6.3-0.8-6.3-0.8"/><path class="r" d="m38.3 561.9c0 0-4.2-2.3-10.9-3.6-6.7-1.2-8.3-1.6-8.3-1.6"/><path class="r" d="m47.9 559.9c0 0-3.9 3.9-8.5 5.1"/><path class="q" d="m103 532.5c0 0 7.3-5.3 4.6-6.7-2.6-1.4-19.2 2.4-35.5 5-16.4 2.7-21.1 6.3-23.9 9.1-2.8 2.9-3.2 7.1-3.2 7.1 0 0 5.4 0.6 6.4 1.2 1 0.6 2.3-4 11.4-8.7 9.1-4.6 15.1-7.7 11.1-2.8-4.1 4.9-9.1 10.1-12.8 11.1-3.6 1-3.6 1-3.6 1 0 0 9.5 3.5 11.5 2.5 2-1.1 15-18.2 16.6-18 1.6 0.2 1.8 1.4-1 4.8-2.8 3.5-8.7 8.1-8.7 8.1 0 0 12.7 0.4 13.3-0.6 0.7-1 8.3-14 8.9-11.3 0.6 2.6 0 3.4-1.2 5-1.2 1.6-3.8 4.7-3.8 4.7 0 0 23.6 3.6 24 1.4 0.4-2.2-1.4-6.9-5.6-8.9-4.3-2-8.5-4-8.5-4z"/><path class="r" d="m103 532.5c0 0-13.1-2.5-20.4-1.5"/><path class="b" d="m68.3 645.8c0 0-2-6-5.9-19.4-3.8-13.5-5.1-27.1-5.1-27.2l2-0.2c0 0.1 1.3 13.5 5.1 26.8 3.8 13.4 5.8 19.3 5.8 19.4z"/><path class="q" d="m77.5 594.9c0 0-3-8.3-9.1-8.1-6 0.2-7.7 9.9-4 18.4 3.6 8.5 12.3 13.6 16.8 16.2 4.4 2.6 14.3 8.9 15.9 10.3 1.6 1.4 2.5-5 4.7-10.3 2.2-5.2 3.6-21.6-1.2-29.5-4.9-7.9-14.8-14-18.8-10.7-4.1 3.2-4.3 13.7-4.3 13.7z"/><path class="r" d="m78.7 597.4c0 0-0.8 2.2 3.9 7.8 4.6 5.7 12.1 11.6 12.9 17.8"/><path class="r" d="m80.6 596.7c0 0 14.5-2.2 18.6-0.2"/><path class="r" d="m78.3 599.8c0 0-5.4 4.8-6.2 9.7"/><path class="r" d="m83.8 607.3c0 0-1.8 4.8-1.4 8.3"/><path class="r" d="m88.8 611.3c0 0 7.7 0.6 9.1 4"/><path class="q" d="m56.7 595.7c0 0 5.2-2.6 2.4-6-2.8-3.5-7.9-2.1-12.7-0.4-4.9 1.6-4.5 3.2-17.8 3.4-13.4 0.2-18 2.6-18 2.6 0 0 6.9 0 11.1 3.3 4.3 3.2 26.1 6.8 31.6 7.7 5.4 0.8 12.9-2.3 13.7-6.7 0.8-4.5-10.3-3.9-10.3-3.9z"/><path class="r" d="m20.1 595.5c0 0 1.8 0.8 13.1 1.9 11.4 1 21.1-0.9 21.1-0.9 0 0-5.5-2.3-9.6-3.2"/><path class="r" d="m36.2 595c0 0 6.4 1.5 9.2 2.9 0 0-5.6 2.1-11.1 1.6"/><path class="r" d="m54.3 596.5c0 0-2.5 4.7-4.8 5.6"/><path class="p" d="m49.5 642.3h46.7l9 33.7-12.6 27.3h-41.2l-12.4-28.9z"/><path class="o" d="m1 704h880.6"/></svg>